<svg width="132" height="132" viewBox="0 0 132 132" fill="none" xmlns="http://www.w3.org/2000/svg">
<g filter="url(#filter0_d_115_607)">
<rect x="14" y="14" width="104" height="104" rx="23.125" fill="black" shape-rendering="crispEdges"/>
<path d="M97.2706 59.4631C98.0868 57.0388 98.369 54.4705 98.0985 51.93C97.8281 49.3894 97.0111 46.935 95.7022 44.7308C93.7617 41.3991 90.7988 38.7613 87.2406 37.1977C83.6823 35.6341 79.7126 35.2255 75.9038 36.0308C73.7399 33.6565 70.9808 31.8856 67.9035 30.8961C64.8262 29.9065 61.5391 29.733 58.3723 30.3932C55.2056 31.0533 52.2707 32.5237 49.8623 34.6568C47.454 36.7898 45.6571 39.5104 44.6521 42.5453C42.1146 43.0586 39.7174 44.1001 37.6207 45.6005C35.524 47.1008 33.7761 49.0252 32.4938 51.2453C30.5322 54.5714 29.6939 58.4267 30.0999 62.2538C30.5059 66.081 32.1354 69.6815 34.7525 72.535C33.9334 74.9582 33.6483 77.526 33.9163 80.0666C34.1844 82.6073 34.9993 85.0621 36.3067 87.2671C38.2496 90.6 41.2151 93.2384 44.7759 94.802C48.3366 96.3656 52.3087 96.7736 56.1197 95.9673C57.8388 97.877 59.9512 99.4029 62.3158 100.443C64.6804 101.483 67.2427 102.014 69.8318 102C73.7357 102.003 77.5399 100.783 80.695 98.5152C83.8502 96.2473 86.1931 93.0492 87.3857 89.3824C89.9229 88.8682 92.3197 87.8262 94.4163 86.3259C96.5129 84.8257 98.261 82.9016 99.544 80.6821C101.482 77.3608 102.306 73.52 101.898 69.7089C101.49 65.8978 99.87 62.3114 97.2706 59.4631ZM69.8318 97.2873C66.6345 97.2923 63.5375 96.1869 61.0837 94.1649L61.5153 93.9237L76.0477 85.6492C76.4093 85.4399 76.7096 85.1415 76.919 84.7831C77.1284 84.4248 77.2397 84.0189 77.242 83.6053V63.3946L83.3855 66.9004C83.4158 66.9156 83.4421 66.9376 83.4622 66.9647C83.4823 66.9919 83.4956 67.0233 83.501 67.0564V83.8042C83.4933 87.3778 82.0507 90.803 79.4889 93.3299C76.927 95.8568 73.4547 97.2798 69.8318 97.2873ZM40.4505 84.9112C38.847 82.18 38.2713 78.9786 38.8246 75.8701L39.2564 76.1257L53.8031 84.4003C54.163 84.6086 54.5728 84.7184 54.9901 84.7184C55.4075 84.7184 55.8172 84.6086 56.1772 84.4003L73.947 74.2948V81.292C73.9453 81.3282 73.9354 81.3637 73.9179 81.3956C73.9004 81.4276 73.8759 81.4552 73.846 81.4765L59.1266 89.8503C55.9853 91.6354 52.2543 92.1178 48.7527 91.1918C45.2511 90.2657 42.2652 88.0069 40.4505 84.9112ZM36.6233 53.6867C38.2379 50.938 40.7863 48.8415 43.8175 47.7683V64.7998C43.812 65.2113 43.9186 65.6167 44.1261 65.9736C44.3337 66.3306 44.6345 66.6261 44.9972 66.8293L62.6807 76.8922L56.5369 80.3977C56.5037 80.4151 56.4666 80.4242 56.429 80.4242C56.3913 80.4242 56.3543 80.4151 56.321 80.3977L41.6305 72.0382C38.4951 70.2455 36.2077 67.3001 35.2692 63.8473C34.3307 60.3944 34.8176 56.7154 36.6233 53.6159V53.6867ZM87.098 65.254L69.357 55.0919L75.4865 51.5999C75.5198 51.5824 75.5568 51.5733 75.5945 51.5733C75.6321 51.5733 75.6692 51.5824 75.7025 51.5999L90.393 59.9737C92.6391 61.2522 94.4703 63.1346 95.6726 65.401C96.8749 67.6675 97.3988 70.2246 97.183 72.7738C96.9673 75.323 96.0209 77.759 94.4543 79.7975C92.8877 81.836 90.7655 83.3928 88.3355 84.2863V67.2547C88.3228 66.8439 88.202 66.4435 87.985 66.0927C87.768 65.7419 87.4625 65.4531 87.098 65.254ZM93.2132 56.1847L92.7813 55.9291L78.2636 47.5838C77.9014 47.3741 77.4891 47.2636 77.0692 47.2636C76.6493 47.2636 76.237 47.3741 75.8749 47.5838L58.12 57.6889V50.6921C58.1162 50.6565 58.1222 50.6206 58.1374 50.5881C58.1526 50.5556 58.1764 50.5278 58.2063 50.5076L72.8968 42.1478C75.1484 40.8683 77.7227 40.2477 80.3187 40.3585C82.9147 40.4692 85.425 41.3068 87.5561 42.7732C89.6873 44.2397 91.351 46.2743 92.3529 48.6393C93.3547 51.0042 93.6533 53.6016 93.2135 56.1277L93.2132 56.1847ZM54.7669 68.5888L48.6234 65.0974C48.5927 65.0792 48.5664 65.0545 48.5464 65.0251C48.5265 64.9957 48.5133 64.9623 48.5078 64.9273V48.2225C48.5112 45.6598 49.2541 43.151 50.6497 40.9895C52.0453 38.8279 54.0358 37.103 56.3887 36.0162C58.7415 34.9295 61.3593 34.5259 63.9361 34.8526C66.5129 35.1794 68.9421 36.223 70.9397 37.8614L70.5079 38.1029L55.9758 46.3769C55.6141 46.5861 55.3138 46.8846 55.1044 47.2429C54.8951 47.6013 54.7838 48.0072 54.7815 48.4208L54.7669 68.5888ZM58.1051 61.4926L66.0186 56.9932L73.947 61.4926V70.4908L66.0475 74.9899L58.1197 70.4908L58.1051 61.4926Z" fill="white"/>
</g>
<defs>
<filter id="filter0_d_115_607" x="0" y="0" width="132" height="132" filterUnits="userSpaceOnUse" color-interpolation-filters="sRGB">
<feFlood flood-opacity="0" result="BackgroundImageFix"/>
<feColorMatrix in="SourceAlpha" type="matrix" values="0 0 0 0 0 0 0 0 0 0 0 0 0 0 0 0 0 0 127 0" result="hardAlpha"/>
<feOffset/>
<feGaussianBlur stdDeviation="7"/>
<feComposite in2="hardAlpha" operator="out"/>
<feColorMatrix type="matrix" values="0 0 0 0 1 0 0 0 0 1 0 0 0 0 1 0 0 0 0.07 0"/>
<feBlend mode="normal" in2="BackgroundImageFix" result="effect1_dropShadow_115_607"/>
<feBlend mode="normal" in="SourceGraphic" in2="effect1_dropShadow_115_607" result="shape"/>
</filter>
</defs>
</svg>
