<svg width="132" height="132" viewBox="0 0 132 132" fill="none" xmlns="http://www.w3.org/2000/svg">
<g filter="url(#filter0_d_115_370)">
<rect x="14" y="14" width="104" height="104" rx="23.125" fill="black" shape-rendering="crispEdges"/>
<path d="M68.5808 102.063L76.9623 80.3896C77.303 79.4951 76.4172 78.635 75.5483 79.0135L54.4412 88.3882C53.6576 88.7322 53.5894 89.8331 54.3049 90.2804L59.0408 93.2562C59.6201 93.6174 59.7223 94.4259 59.2453 94.9075L53.5724 100.876C53.1636 101.306 53.1806 101.977 53.6065 102.39L54.7308 103.474C55.1567 103.887 55.8211 103.869 56.23 103.439L61.9028 97.4705C62.3628 96.9717 63.1635 97.0405 63.5553 97.6081L66.6898 102.27C67.1668 102.992 68.2571 102.855 68.5638 102.063H68.5808Z" fill="white"/>
<path d="M36.3664 86.29L59.1601 82.781C60.097 82.6433 60.3866 81.4221 59.6371 80.8544L41.0512 67.0933C40.3528 66.5773 39.3817 67.0589 39.3647 67.919L39.1943 73.5438C39.1773 74.2319 38.53 74.7135 37.8826 74.5587L29.927 72.5805C29.3648 72.4429 28.7856 72.787 28.6323 73.3718L28.2575 74.9027C28.1212 75.4704 28.4619 76.0552 29.0411 76.21L36.9967 78.1882C37.6611 78.343 38.0019 79.0827 37.6952 79.7019L35.2591 84.7763C34.8843 85.5504 35.5317 86.4276 36.3835 86.3072L36.3664 86.29Z" fill="white"/>
<path d="M33.7772 50.2366L48.1893 68.4012C48.7855 69.1409 49.978 68.7968 50.0802 67.8508L52.6015 44.7149C52.6867 43.8549 51.8008 43.2356 51.0342 43.6484L46.1109 46.3147C45.5147 46.6415 44.7822 46.3147 44.5948 45.661L42.312 37.7312C42.1416 37.1635 41.5624 36.8367 41.0003 36.9915L39.5011 37.4387C38.9389 37.6108 38.6153 38.1956 38.7686 38.7633L41.0514 46.6931C41.2388 47.3467 40.7788 48.0176 40.1144 48.0692L34.5438 48.482C33.692 48.5508 33.2491 49.5485 33.7942 50.2194L33.7772 50.2366Z" fill="white"/>
<path d="M63.4191 29.9382L55.0376 51.6119C54.6969 52.5064 55.5828 53.3665 56.4516 52.988L77.5587 43.6133C78.3423 43.2693 78.4105 42.1684 77.695 41.7211L72.9591 38.7453C72.3799 38.3841 72.2777 37.5756 72.7547 37.094L78.4275 31.1251C78.8364 30.6951 78.8193 30.0242 78.3934 29.6114L77.2691 28.5277C76.8432 28.1149 76.1788 28.1321 75.77 28.5621L70.0971 34.531C69.6371 35.0298 68.8365 34.961 68.4446 34.3934L65.3101 29.7318C64.8331 29.0093 63.7428 29.1469 63.4362 29.9382H63.4191Z" fill="white"/>
<path d="M95.6335 45.7119L72.8398 49.221C71.9029 49.3586 71.6133 50.5799 72.3628 51.1476L90.9487 64.9087C91.6471 65.4247 92.6182 64.9431 92.6352 64.083L92.8056 58.4582C92.8226 57.7701 93.47 57.2885 94.1173 57.4433L102.073 59.4214C102.635 59.5591 103.214 59.215 103.368 58.6302L103.742 57.0993C103.879 56.5316 103.538 55.9468 102.959 55.792L95.0032 53.8138C94.3388 53.659 93.9981 52.9193 94.3047 52.3001L96.7408 47.2257C97.1156 46.4516 96.4682 45.5743 95.6164 45.6947L95.6335 45.7119Z" fill="white"/>
<path d="M98.2226 81.7662L83.8105 63.6015C83.2143 62.8619 82.0218 63.2059 81.9195 64.152L79.3983 87.2878C79.3131 88.1479 80.1989 88.7671 80.9656 88.3543L85.8888 85.6881C86.4851 85.3613 87.2176 85.6881 87.405 86.3417L89.6878 94.2716C89.8581 94.8392 90.4374 95.166 90.9995 95.0112L92.4987 94.564C93.0608 94.392 93.3845 93.8071 93.2312 93.2395L90.9484 85.3097C90.761 84.656 91.221 83.9852 91.8854 83.9335L97.456 83.5207C98.3078 83.4519 98.7507 82.4542 98.2056 81.7834L98.2226 81.7662Z" fill="white"/>
</g>
<defs>
<filter id="filter0_d_115_370" x="0" y="0" width="132" height="132" filterUnits="userSpaceOnUse" color-interpolation-filters="sRGB">
<feFlood flood-opacity="0" result="BackgroundImageFix"/>
<feColorMatrix in="SourceAlpha" type="matrix" values="0 0 0 0 0 0 0 0 0 0 0 0 0 0 0 0 0 0 127 0" result="hardAlpha"/>
<feOffset/>
<feGaussianBlur stdDeviation="7"/>
<feComposite in2="hardAlpha" operator="out"/>
<feColorMatrix type="matrix" values="0 0 0 0 1 0 0 0 0 1 0 0 0 0 1 0 0 0 0.07 0"/>
<feBlend mode="normal" in2="BackgroundImageFix" result="effect1_dropShadow_115_370"/>
<feBlend mode="normal" in="SourceGraphic" in2="effect1_dropShadow_115_370" result="shape"/>
</filter>
</defs>
</svg>
