<svg width="331" height="68" viewBox="0 0 331 68" fill="none" xmlns="http://www.w3.org/2000/svg">
<g clip-path="url(#clip0_24_1421)">
<path d="M35.745 66.0848L43.5792 46.0249C43.7778 45.5283 43.2702 45.0428 42.7737 45.2525L23.0558 53.9252C22.6144 54.1239 22.5703 54.7307 22.9785 54.9845L27.988 58.0961C28.308 58.2947 28.3742 58.7471 28.1094 59.023L22.6586 64.7055C22.4268 64.9483 22.4379 65.3234 22.6806 65.5551L24.1371 66.9565C24.3799 67.1882 24.755 67.1772 24.9867 66.9344L30.4376 61.2519C30.7024 60.976 31.1548 61.0091 31.3644 61.3291L34.6857 66.2062C34.9615 66.6034 35.5684 66.5372 35.745 66.0848Z" fill="white"/>
<path d="M6.57091 51.5752L27.8667 48.3312C28.3963 48.2539 28.5618 47.5698 28.1315 47.2498L10.7639 34.5055C10.3777 34.2186 9.82596 34.4834 9.80389 34.9689L9.61631 40.8611C9.60527 41.2473 9.24115 41.5121 8.87703 41.4238L1.23042 39.548C0.91043 39.4708 0.579408 39.6694 0.50217 39.9894L0.016671 41.9535C-0.0605674 42.2735 0.138046 42.6045 0.458034 42.6817L8.10464 44.5575C8.4798 44.6458 8.66738 45.054 8.50187 45.4071L5.93093 50.7145C5.72128 51.1448 6.08541 51.6414 6.55987 51.5752H6.57091Z" fill="white"/>
<path d="M4.55158 19.0466L18.0131 35.8625C18.3442 36.2818 19.0172 36.0832 19.0834 35.5536L21.4337 14.1475C21.4889 13.662 20.9813 13.3199 20.551 13.5516L15.3539 16.3433C15.0119 16.5198 14.6036 16.3433 14.4933 15.9791L12.2975 8.40976C12.2092 8.08977 11.8672 7.90219 11.5472 8.0015L9.60518 8.56424C9.28519 8.65251 9.09761 8.99456 9.19692 9.31455L11.3927 16.8839C11.503 17.248 11.2382 17.6232 10.8631 17.6563L4.98191 18.0866C4.49641 18.1197 4.25366 18.6825 4.55158 19.0576V19.0466Z" fill="white"/>
<path d="M31.7067 1.03904L23.8725 21.099C23.6739 21.5955 24.1815 22.081 24.678 21.8714L44.3959 13.1986C44.8372 13 44.8814 12.3931 44.4731 12.1393L39.4636 9.02771C39.1437 8.82909 39.0775 8.3767 39.3423 8.10085L44.7931 2.4183C45.0248 2.17555 45.0138 1.80039 44.771 1.56868L43.3145 0.167351C43.0718 -0.0643645 42.6966 -0.0533305 42.4649 0.189419L37.0141 5.87196C36.7493 6.14782 36.2969 6.11471 36.0872 5.79472L32.766 0.917667C32.4901 0.520441 31.8832 0.586645 31.7067 1.03904Z" fill="white"/>
<path d="M60.8806 15.5487L39.5849 18.7927C39.0552 18.87 38.8897 19.5541 39.3201 19.8741L56.6877 32.6184C57.0739 32.9053 57.6256 32.6405 57.6476 32.155L57.8352 26.2628C57.8462 25.8766 58.2104 25.6118 58.5745 25.7L66.2211 27.5758C66.5411 27.6531 66.8721 27.4545 66.9494 27.1345L67.4349 25.1704C67.5121 24.8504 67.3135 24.5194 66.9935 24.4422L59.3469 22.5664C58.9717 22.4781 58.7841 22.0698 58.9497 21.7167L61.5206 16.4094C61.7302 15.979 61.3661 15.4825 60.8917 15.5487H60.8806Z" fill="white"/>
<path d="M62.8999 48.0663L49.4384 31.2503C49.1073 30.8311 48.4343 31.0297 48.3681 31.5593L46.0178 52.9654C45.9626 53.4509 46.4702 53.7929 46.9005 53.5612L52.0976 50.7696C52.4396 50.5931 52.8479 50.7696 52.9582 51.1337L55.154 58.7031C55.2423 59.0231 55.5843 59.2107 55.9043 59.1114L57.8463 58.5486C58.1663 58.4604 58.3539 58.1183 58.2546 57.7983L56.0588 50.2289C55.9485 49.8648 56.2133 49.4897 56.5884 49.4566L62.4696 49.0262C62.9551 48.9931 63.1978 48.4304 62.8999 48.0552V48.0663Z" fill="white"/>
<path d="M101.304 55.1846C97.4422 55.1846 94.0547 54.3129 91.1418 52.5695C88.2398 50.8262 85.9447 48.3987 84.2896 45.2871C82.6235 42.1644 81.7959 38.5452 81.7959 34.4075C81.7959 30.2697 82.6235 26.7057 84.2896 23.5941C85.9557 20.4825 88.2398 18.0329 91.1418 16.2785C94.0437 14.5241 97.4312 13.6414 101.304 13.6414C105.177 13.6414 108.642 14.5241 111.599 16.2785C114.567 18.0439 116.862 20.4825 118.484 23.5941C120.106 26.7167 120.923 30.3138 120.923 34.4075C120.923 38.5011 120.106 42.1644 118.484 45.2871C116.862 48.4097 114.567 50.8372 111.599 52.5695C108.631 54.3129 105.199 55.1846 101.304 55.1846ZM101.304 50.0758C104.096 50.0758 106.523 49.4469 108.587 48.178C110.65 46.9201 112.25 45.1215 113.375 42.7823C114.501 40.4431 115.064 37.6515 115.064 34.4075C115.064 31.1635 114.501 28.3608 113.375 26.0326C112.25 23.6934 110.65 21.9059 108.587 20.6701C106.523 19.4232 104.096 18.8053 101.304 18.8053C98.5125 18.8053 96.2064 19.4232 94.1651 20.6701C92.1128 21.9169 90.5238 23.7044 89.3763 26.0326C88.2288 28.3608 87.655 31.1635 87.655 34.4075C87.655 37.6515 88.2288 40.4541 89.3763 42.7823C90.5238 45.1105 92.1238 46.9091 94.1651 48.178C96.2064 49.4359 98.5897 50.0758 101.304 50.0758Z" fill="white"/>
<path d="M124.09 67.1126V25.5694H129.254L129.827 30.0492C130.401 29.1665 131.151 28.3389 132.089 27.5555C133.027 26.7721 134.131 26.1321 135.388 25.6356C136.646 25.139 138.147 24.8853 139.868 24.8853C142.66 24.8853 145.098 25.5473 147.184 26.8604C149.269 28.1844 150.891 29.983 152.061 32.256C153.231 34.529 153.815 37.1441 153.815 40.0902C153.815 43.0363 153.22 45.5852 152.039 47.8692C150.847 50.1422 149.214 51.9297 147.129 53.2318C145.043 54.5338 142.605 55.1848 139.813 55.1848C137.551 55.1848 135.576 54.7324 133.877 53.8386C132.178 52.9449 130.82 51.687 129.827 50.076V67.1237H124.09V67.1126ZM138.952 50.1864C140.674 50.1864 142.219 49.7671 143.576 48.9285C144.933 48.0899 146.003 46.9092 146.787 45.3976C147.57 43.8859 147.967 42.1205 147.967 40.0902C147.967 38.0599 147.57 36.2393 146.787 34.7276C146.003 33.216 144.933 32.0243 143.576 31.1747C142.219 30.314 140.674 29.8837 138.952 29.8837C137.121 29.8837 135.521 30.314 134.164 31.1747C132.807 32.0353 131.758 33.227 131.008 34.7276C130.258 36.2393 129.894 38.0268 129.894 40.0902C129.894 42.1536 130.269 43.8749 131.008 45.3755C131.758 46.8651 132.807 48.0458 134.164 48.9064C135.521 49.7671 137.121 50.1974 138.952 50.1974V50.1864Z" fill="white"/>
<path d="M170.168 55.1848C167.409 55.1848 164.971 54.5559 162.852 53.2869C160.734 52.0291 159.067 50.2636 157.865 48.0127C156.662 45.7507 156.055 43.1135 156.055 40.0902C156.055 37.0669 156.64 34.4187 157.81 32.1457C158.979 29.8727 160.634 28.0962 162.797 26.8052C164.96 25.5252 167.453 24.8853 170.289 24.8853C173.125 24.8853 175.552 25.5142 177.572 26.7831C179.591 28.052 181.158 29.7071 182.25 31.7705C183.342 33.8339 183.883 36.129 183.883 38.6558V39.9137C183.883 40.3771 183.839 40.8515 183.773 41.3481H160.248V37.3317H178.212C178.101 34.9594 177.296 33.0836 175.806 31.7043C174.317 30.325 172.463 29.6409 170.245 29.6409C168.678 29.6409 167.244 29.994 165.942 30.7002C164.64 31.4064 163.602 32.4436 162.841 33.8008C162.08 35.158 161.694 36.8682 161.694 38.9316V40.5426C161.694 42.6832 162.08 44.4818 162.841 45.9383C163.602 47.3947 164.629 48.4982 165.909 49.2705C167.189 50.0319 168.612 50.4181 170.19 50.4181C172.021 50.4181 173.544 50.0209 174.747 49.2154C175.95 48.4099 176.821 47.3175 177.362 45.9493H183.1C182.603 47.7147 181.765 49.2926 180.573 50.6829C179.381 52.0842 177.936 53.1766 176.214 53.9821C174.493 54.7876 172.485 55.1848 170.19 55.1848H170.168Z" fill="white"/>
<path d="M186.862 54.4897V25.5694H192.026L192.368 30.5016C193.284 28.7472 194.575 27.368 196.241 26.3639C197.907 25.3708 199.849 24.8743 202.067 24.8743C204.395 24.8743 206.393 25.3377 208.037 26.2535C209.681 27.1694 210.95 28.5596 211.854 30.4134C212.748 32.2671 213.201 34.5953 213.201 37.3869V54.4897H207.463V37.9607C207.463 35.2794 206.867 33.2491 205.686 31.8478C204.495 30.4465 202.773 29.7513 200.522 29.7513C199.033 29.7513 197.687 30.1154 196.506 30.8437C195.325 31.5719 194.377 32.6202 193.67 33.9994C192.964 35.3787 192.611 37.0559 192.611 39.053V54.4897H186.873H186.862Z" fill="white"/>
<path d="M221.752 54.4896L213.256 25.5693H218.993L225.305 49.6677H224.268L231.153 25.5693H237.575L244.637 49.6126L243.544 49.6677L249.8 25.5693H255.538L247.108 54.4896H241.194L233.911 29.4092H235.059L227.655 54.4896H221.741H221.752Z" fill="white"/>
<path d="M269.497 55.1848C266.738 55.1848 264.278 54.5559 262.093 53.2869C259.908 52.0291 258.209 50.2526 256.984 47.9796C255.759 45.7065 255.152 43.0694 255.152 40.0902C255.152 37.111 255.77 34.3635 257.017 32.0905C258.264 29.8175 259.974 28.041 262.148 26.7831C264.333 25.5252 266.771 24.8853 269.497 24.8853C272.222 24.8853 274.694 25.5142 276.845 26.7831C278.997 28.052 280.685 29.8064 281.954 32.0574C283.212 34.3194 283.852 36.9786 283.852 40.035C283.852 43.0915 283.223 45.7065 281.954 47.9796C280.696 50.2526 278.975 52.0291 276.823 53.2869C274.661 54.5448 272.222 55.1848 269.508 55.1848H269.497ZM269.43 50.2415C270.964 50.2415 272.365 49.8553 273.645 49.094C274.925 48.3326 275.974 47.1851 276.768 45.6514C277.574 44.1176 277.971 42.2418 277.971 40.024C277.971 37.8061 277.574 35.8862 276.79 34.3745C276.007 32.8629 274.981 31.7264 273.723 30.965C272.465 30.2037 271.063 29.8175 269.53 29.8175C267.996 29.8175 266.584 30.2037 265.282 30.965C263.98 31.7264 262.942 32.8629 262.159 34.3745C261.376 35.8862 260.978 37.773 260.978 40.024C260.978 42.2749 261.365 44.1176 262.159 45.6514C262.953 47.1851 263.969 48.3326 265.226 49.094C266.484 49.8553 267.886 50.2415 269.419 50.2415H269.43Z" fill="white"/>
<path d="M287.107 54.4897V25.5694H292.271L292.734 31.0202C293.418 29.7182 294.279 28.6259 295.283 27.7211C296.298 26.8273 297.523 26.1211 298.958 25.6246C300.392 25.128 301.992 24.8743 303.746 24.8743V30.8989H301.683C300.491 30.8989 299.366 31.0533 298.295 31.3623C297.225 31.6713 296.287 32.1678 295.482 32.8519C294.676 33.536 294.036 34.4739 293.562 35.6325C293.087 36.7911 292.845 38.2807 292.845 40.0792V54.4787H287.107V54.4897Z" fill="white"/>
<path d="M305.589 54.4895V13.178H311.327V54.4895H305.589ZM323.773 54.4895L310.455 38.6556L322.56 25.5692H329.445L315.156 40.8294L315.101 36.5812L331.001 54.4895H323.773Z" fill="white"/>
</g>
<defs>
<clipPath id="clip0_24_1421">
<rect width="331" height="67.1237" fill="white"/>
</clipPath>
</defs>
</svg>
