<svg width="301" height="57" viewBox="0 0 301 57" fill="none" xmlns="http://www.w3.org/2000/svg">
<g clip-path="url(#clip0_116_620)">
<path d="M77.8696 46.7711C74.4626 46.7711 71.4735 46.0022 68.9119 44.4678C66.3471 42.9334 64.3309 40.7897 62.8635 38.0398C61.3961 35.29 60.6624 32.0935 60.6624 28.4473C60.6624 24.801 61.3961 21.6556 62.8635 18.9058C64.3309 16.156 66.3471 14.0059 68.9119 12.4523C71.4767 10.9019 74.4626 10.1235 77.8696 10.1235C81.2766 10.1235 84.3391 10.8987 86.9549 12.4523C89.5708 14.0059 91.5933 16.156 93.0288 18.9058C94.4611 21.6556 95.1789 24.8361 95.1789 28.4473C95.1789 32.0585 94.4611 35.29 93.0288 38.0398C91.5933 40.7897 89.5708 42.9334 86.9549 44.4678C84.3391 46.0022 81.3117 46.7711 77.8696 46.7711ZM77.8696 42.2667C80.3323 42.2667 82.4761 41.7084 84.2976 40.5951C86.1191 39.4817 87.5291 37.8963 88.5244 35.8355C89.5197 33.7779 90.0174 31.3152 90.0174 28.4441C90.0174 25.573 89.5197 23.1135 88.5244 21.0527C87.5291 18.9951 86.1191 17.416 84.2976 16.3187C82.4761 15.2213 80.3323 14.6726 77.8696 14.6726C75.4069 14.6726 73.3716 15.2213 71.5692 16.3187C69.7636 17.416 68.3536 18.9919 67.3424 21.0527C66.3311 23.1103 65.8239 25.5762 65.8239 28.4441C65.8239 31.312 66.3311 33.7779 67.3424 35.8355C68.3536 37.8931 69.7636 39.4786 71.5692 40.5951C73.3748 41.7084 75.4739 42.2667 77.8696 42.2667Z" fill="white"/>
<path d="M97.1536 55.9999V20.654H101.709L102.216 24.6033C102.723 23.8281 103.387 23.0944 104.216 22.4021C105.043 21.7099 106.012 21.1452 107.126 20.705C108.239 20.268 109.557 20.0479 111.075 20.0479C113.538 20.0479 115.688 20.6284 117.529 21.7928C119.366 22.9572 120.802 24.5427 121.832 26.5524C122.862 28.559 123.376 30.8622 123.376 33.4621C123.376 36.062 122.853 38.3142 121.806 40.3207C120.76 42.3273 119.318 43.9064 117.478 45.0516C115.637 46.2 113.487 46.7743 111.024 46.7743C109.033 46.7743 107.285 46.3755 105.786 45.5844C104.283 44.7932 103.093 43.6863 102.216 42.2699V56.0031H97.1536V55.9999ZM110.262 42.3688C111.78 42.3688 113.139 41.9987 114.335 41.2554C115.532 40.5122 116.479 39.4754 117.171 38.1419C117.863 36.8085 118.208 35.2485 118.208 33.4589C118.208 31.6693 117.86 30.0583 117.171 28.7248C116.479 27.3914 115.535 26.345 114.335 25.5858C113.136 24.8266 111.78 24.447 110.262 24.447C108.641 24.447 107.231 24.8266 106.035 25.5858C104.835 26.345 103.91 27.3914 103.25 28.7248C102.593 30.0583 102.264 31.6342 102.264 33.4589C102.264 35.2836 102.593 36.7989 103.25 38.1164C103.907 39.4339 104.835 40.4707 106.035 41.2299C107.231 41.9892 108.641 42.3688 110.262 42.3688Z" fill="white"/>
<path d="M137.798 46.7711C135.367 46.7711 133.217 46.2129 131.345 45.0995C129.472 43.9862 128.005 42.4326 126.942 40.442C125.88 38.4514 125.347 36.1227 125.347 33.4558C125.347 30.7889 125.861 28.4537 126.891 26.444C127.922 24.4374 129.389 22.8679 131.294 21.7354C133.198 20.6062 135.403 20.0383 137.9 20.0383C140.398 20.0383 142.539 20.5966 144.328 21.7099C146.118 22.8233 147.493 24.2907 148.453 26.1122C149.413 27.9338 149.895 29.9594 149.895 32.1861V33.2995C149.895 33.7046 149.86 34.1257 149.793 34.5659H129.042V31.0217H144.883C144.781 28.9291 144.073 27.2766 142.759 26.0612C141.445 24.8458 139.805 24.2397 137.849 24.2397C136.465 24.2397 135.198 24.5523 134.053 25.1775C132.905 25.8028 131.996 26.712 131.319 27.9114C130.643 29.1109 130.308 30.6198 130.308 32.4413V33.8577C130.308 35.7462 130.646 37.3349 131.319 38.6173C131.996 39.8997 132.895 40.8791 134.028 41.5522C135.157 42.2285 136.414 42.5634 137.798 42.5634C139.419 42.5634 140.759 42.2093 141.821 41.5011C142.883 40.7929 143.652 39.8295 144.124 38.6173H149.187C148.747 40.1709 148.006 41.5617 146.96 42.7931C145.914 44.0245 144.631 44.9942 143.113 45.7024C141.594 46.4106 139.824 46.7647 137.798 46.7647V46.7711Z" fill="white"/>
<path d="M152.086 46.6051V21.0942H156.642L156.945 25.4486C157.755 23.8982 158.894 22.6828 160.361 21.8055C161.829 20.9283 163.542 20.488 165.498 20.488C167.555 20.488 169.31 20.8932 170.761 21.7035C172.213 22.5137 173.332 23.7355 174.127 25.372C174.918 27.0085 175.317 29.0598 175.317 31.5225V46.6051H170.254V32.0265C170.254 29.6659 169.731 27.8667 168.684 26.6353C167.638 25.4039 166.12 24.7883 164.129 24.7883C162.815 24.7883 161.631 25.1104 160.585 25.7485C159.538 26.3897 158.703 27.318 158.081 28.5334C157.455 29.7488 157.143 31.2322 157.143 32.9867V46.6019H152.08L152.086 46.6051Z" fill="white"/>
<path d="M182.864 46.6052L175.374 21.0942H180.437L186.003 42.3529H185.091L191.165 21.0942H196.834L203.061 42.3018L202.1 42.3529L207.616 21.0942H212.679L205.239 46.6052H200.027L193.599 24.4853H194.61L188.08 46.6052H182.867H182.864Z" fill="white"/>
<path d="M224.976 47.2113C222.546 47.2113 220.37 46.653 218.446 45.5397C216.523 44.4264 215.02 42.8664 213.942 40.8567C212.861 38.8501 212.321 36.5277 212.321 33.8959C212.321 31.2641 212.87 28.8429 213.967 26.8363C215.065 24.8298 216.574 23.2666 218.497 22.1533C220.421 21.04 222.581 20.4817 224.976 20.4817C227.372 20.4817 229.564 21.04 231.455 22.1533C233.344 23.2666 234.846 24.8202 235.96 26.8108C237.073 28.8014 237.631 31.1461 237.631 33.8481C237.631 36.5501 237.073 38.8501 235.96 40.8599C234.846 42.8664 233.334 44.4295 231.43 45.5429C229.522 46.6562 227.372 47.2145 224.976 47.2145V47.2113ZM224.925 42.86C226.275 42.86 227.516 42.5219 228.645 41.8488C229.774 41.1757 230.696 40.1612 231.404 38.8118C232.113 37.4624 232.467 35.81 232.467 33.8513C232.467 31.8926 232.119 30.1986 231.43 28.8652C230.738 27.5317 229.835 26.5301 228.722 25.8538C227.608 25.1807 226.377 24.8425 225.027 24.8425C223.678 24.8425 222.428 25.1807 221.282 25.8538C220.134 26.5301 219.215 27.5317 218.523 28.8652C217.831 30.1986 217.486 31.8607 217.486 33.8513C217.486 35.8419 217.831 37.4624 218.523 38.8118C219.215 40.1612 220.118 41.1757 221.231 41.8488C222.345 42.5251 223.576 42.86 224.925 42.86Z" fill="white"/>
<path d="M239.884 46.6051V21.0942H244.439L244.844 25.9016C245.45 24.7563 246.203 23.7834 247.096 22.9922C247.99 22.2011 249.071 21.5822 250.334 21.1452C251.601 20.7082 253.008 20.488 254.561 20.488V25.8027H252.74C251.693 25.8027 250.698 25.9367 249.754 26.2078C248.809 26.479 247.983 26.916 247.272 27.5253C246.564 28.1314 245.999 28.9513 245.575 29.9817C245.154 31.0121 244.943 32.32 244.943 33.9055V46.6115H239.88L239.884 46.6051Z" fill="white"/>
<path d="M256.663 46.6052V10.1619H261.726V46.6052H256.663ZM272.71 46.6052L260.967 32.6359L271.647 21.0942H277.721L265.117 34.5595L265.066 30.8144L279.086 46.6052H272.71Z" fill="white"/>
<path d="M282 38.5609V37H288.717V38.5609H286.382V46H284.335V38.5609H282ZM290.123 46V37.0055H292.775L295.587 43.6477L298.534 37.0055H301V46H299.118V39.5597L296.227 46H294.793L291.953 39.5106V46H290.123Z" fill="white"/>
<path d="M29.6836 54.2135L34.2965 36.9106C34.3953 36.5437 33.9998 36.2439 33.6744 36.4353L18.1866 45.4249C17.8899 45.5972 17.9091 46.0278 18.2185 46.1746L22.7675 48.3374C23.01 48.4523 23.0865 48.7649 22.9239 48.9786L18.9203 54.2167C18.7768 54.4018 18.815 54.6697 19.0001 54.8101L20.4196 55.8947C20.6047 56.0383 20.8726 56 21.013 55.815L25.0165 50.5769C25.1792 50.3631 25.5014 50.3536 25.6769 50.5577L28.9563 54.3794C29.1796 54.6378 29.6007 54.5421 29.6868 54.2135H29.6836Z" fill="white"/>
<path d="M6.09301 43.6257L23.3832 38.9682C23.7469 38.8693 23.8107 38.378 23.4853 38.1898L7.95601 29.2735C7.65933 29.1045 7.29566 29.3342 7.32118 29.6755L7.72313 34.6967C7.74546 34.9646 7.51259 35.1847 7.24462 35.1528L0.704976 34.3043C0.472101 34.2756 0.258367 34.4383 0.229656 34.6711L0.00316093 36.4384C-0.0255497 36.6713 0.137144 36.8851 0.370019 36.9138L6.90966 37.7623C7.17763 37.7974 7.34351 38.0686 7.25419 38.3238L5.58259 43.0738C5.46775 43.396 5.76443 43.7118 6.09301 43.6257Z" fill="white"/>
<path d="M3.47079 17.901L16.1513 30.5465C16.4193 30.8144 16.8755 30.623 16.8755 30.2466L16.834 12.3375C16.834 11.9962 16.4512 11.7952 16.1673 11.9898L12.0202 14.8481C11.7969 15.0012 11.4906 14.9119 11.3885 14.6631L8.85244 8.57645C8.76312 8.35952 8.51429 8.25744 8.29737 8.34676L6.6481 9.03263C6.43118 9.12195 6.3291 9.37078 6.41842 9.5877L8.95452 15.6744C9.0598 15.9232 8.90667 16.2039 8.6419 16.2549L3.69091 17.1833C3.35595 17.2471 3.22835 17.6586 3.47079 17.901Z" fill="white"/>
<path d="M24.4359 2.76736L19.8231 20.0703C19.7242 20.4372 20.1197 20.737 20.4451 20.5456L35.9329 11.556C36.2296 11.3837 36.2105 10.9531 35.901 10.8063L31.352 8.64347C31.1095 8.52862 31.033 8.216 31.1957 8.00226L35.1992 2.76417C35.3428 2.57914 35.3045 2.31118 35.1195 2.17082L33.6999 1.08619C33.5149 0.942639 33.2469 0.98092 33.1065 1.16594L29.103 6.40404C28.9403 6.61777 28.6181 6.62734 28.4426 6.42318L25.1632 2.60148C24.9399 2.34308 24.5189 2.43878 24.4327 2.76736H24.4359Z" fill="white"/>
<path d="M48.0266 13.3584L30.7364 18.0159C30.3727 18.1148 30.3089 18.606 30.6343 18.7943L46.1636 27.7105C46.4602 27.8796 46.8239 27.6499 46.7984 27.3086L46.3964 22.2874C46.3741 22.0194 46.607 21.7993 46.8749 21.8312L53.4146 22.6798C53.6475 22.7085 53.8612 22.5458 53.8899 22.3129L54.1196 20.5424C54.1483 20.3095 53.9856 20.0958 53.7527 20.0671L47.2131 19.2185C46.9451 19.1835 46.7792 18.9123 46.8686 18.6571L48.5402 13.9071C48.655 13.5849 48.3583 13.2691 48.0297 13.3552L48.0266 13.3584Z" fill="white"/>
<path d="M50.6487 39.0831L37.9682 26.4376C37.7002 26.1697 37.244 26.3611 37.244 26.7375L37.2855 44.6465C37.2855 44.9879 37.6683 45.1889 37.9522 44.9943L42.0993 42.136C42.3226 41.9828 42.6289 42.0722 42.7309 42.321L45.267 48.4076C45.3564 48.6246 45.6052 48.7266 45.8221 48.6373L47.4714 47.9515C47.6883 47.8621 47.7904 47.6133 47.7011 47.3964L45.165 41.3097C45.0597 41.0609 45.2128 40.7802 45.4776 40.7291L50.4286 39.8008C50.7635 39.737 50.8911 39.3255 50.6487 39.0831Z" fill="white"/>
</g>
<defs>
<clipPath id="clip0_116_620">
<rect width="301" height="57" fill="white"/>
</clipPath>
</defs>
</svg>
